<svg xmlns="http://www.w3.org/2000/svg" xmlns:svg="http://www.w3.org/2000/svg" xmlns:xlink="http://www.w3.org/1999/xlink" id="svg14" width="16" height="16" version="1.1"><metadata id="metadata20"/><defs id="defs18"><linearGradient id="linearGradient913"><stop style="stop-color:#341668;stop-opacity:1" id="stop909" offset="0"/><stop style="stop-color:#3295ca;stop-opacity:1" id="stop911" offset="1"/></linearGradient><linearGradient id="linearGradient4528"><stop style="stop-color:#392955;stop-opacity:1" id="stop4524" offset="0"/><stop style="stop-color:#3a6294;stop-opacity:1" id="stop4526" offset="1"/></linearGradient><radialGradient id="radialGradient897" cx="5.459" cy="10.771" r="8" fx="5.459" fy="10.771" gradientTransform="matrix(1.9915525,0,0,1.9915526,-7.9412412,-7.9374555)" gradientUnits="userSpaceOnUse" xlink:href="#linearGradient913"/><radialGradient id="radialGradient901" cx="4.729" cy="11.996" r="8" fx="4.729" fy="11.996" gradientTransform="matrix(1.9915525,0,0,1.9915526,21.518548,-7.9374555)" gradientUnits="userSpaceOnUse" xlink:href="#linearGradient4528"/></defs><rect id="rect2" width="16" height="16" x=".009" y=".005" fill="#201a26" stroke-width="1" rx="3" ry="3" style="fill:url(#radialGradient897);fill-opacity:1"/><g id="g36" transform="matrix(0.03723917,0,0,0.03723917,7.4804452,7.8844953)" style="fill:#fff;stroke-width:26.8534"><path style="fill:#fff;fill-opacity:1;fill-rule:nonzero;stroke:none;stroke-width:78.2749;stroke-miterlimit:4" id="path3775" d="m 120.31492,-163.23124 c -71.712288,0 -85.164538,102.14091 -44.822368,102.14091 40.336348,0 116.537588,-102.14091 44.822368,-102.14091 z"/><path style="fill:#fff;fill-opacity:1;fill-rule:nonzero;stroke:none;stroke-width:78.2749;stroke-miterlimit:4" id="path3777" d="m 1.2384719,-73.74682 c 21.4798701,1.31171 45.0468201,-81.97273 4.67549,-76.73466 -40.3567529,5.23807 -26.1641099,75.42296 -4.67549,76.73466 z"/><path style="fill:#fff;fill-opacity:1;fill-rule:nonzero;stroke:none;stroke-width:78.2749;stroke-miterlimit:4" id="path3779" d="m -97.203431,-21.99574 c 15.27697,-6.72466 1.96755,-72.49931 -24.010009,-54.56104 -25.9659,17.94119 8.73303,61.2828 24.010009,54.56104 z"/><path style="fill:#fff;fill-opacity:1;fill-rule:nonzero;stroke:none;stroke-width:78.2749;stroke-miterlimit:4" id="path3781" d="m -54.159151,-56.42358 c 18.18604,-3.70775 19.18294,-78.3058 -13.24821,-64.92351 -32.43697,13.38521 -4.92326,68.63708 13.24821,64.92351 z"/><path style="fill:#fff;fill-opacity:1;fill-rule:nonzero;stroke:none;stroke-width:78.2749;stroke-miterlimit:4" id="path3783" d="m 40.805282,110.51548 c 3.22679,24.64254 -18.07819,36.81224 -38.9430201,20.92605 C -64.559501,80.87098 111.8384,55.64255 100.21088,-13.44634 90.559662,-70.79403 -85.398101,-53.1385 -105.4351,36.59369 c -13.56302,60.69107 55.829019,144.89079 128.235062,144.89079 35.62004,0 76.70552,-32.16297 84.392098,-72.9074 5.8706,-31.06989 -69.080148,-18.62037 -66.386778,1.9384 z"/></g><rect id="rect899" width="16" height="16" x="29.469" y=".005" fill="#201a26" stroke-width="1" rx="3" ry="3" style="fill:url(#radialGradient901);fill-opacity:1"/></svg>